<?xml version="1.0" standalone="no"?>
<!DOCTYPE svg PUBLIC "-//W3C//DTD SVG 20010904//EN"
 "http://www.w3.org/TR/2001/REC-SVG-20010904/DTD/svg10.dtd">
<svg version="1.0" xmlns="http://www.w3.org/2000/svg"
 width="500.000000pt" height="500.000000pt" viewBox="0 0 500.000000 500.000000"
 preserveAspectRatio="xMidYMid meet">
<metadata>
Created by potrace 1.11, written by Peter Selinger 2001-2013
</metadata>
<g transform="translate(0.000000,500.000000) scale(0.100000,-0.100000)"
fill="#000000" stroke="none">
<path d="M2163 4277 c-30 -9 -171 -148 -633 -627 -40 -41 -202 -208 -360 -370
-363 -372 -356 -365 -373 -414 -11 -33 -13 -236 -13 -1096 l1 -1055 1778 0
c978 -1 1780 2 1782 5 2 3 -163 241 -366 529 -203 287 -369 526 -369 530 0 3
8 13 18 22 32 28 106 121 155 193 211 311 290 686 233 1106 -9 67 -51 223 -76
285 -59 146 -146 296 -228 395 -85 101 -127 141 -242 234 -151 120 -398 224
-610 257 -92 14 -653 19 -697 6z m722 -231 c276 -65 525 -228 688 -451 69 -94
71 -96 121 -200 87 -179 124 -346 123 -564 -1 -410 -136 -709 -445 -982 l-52
-46 246 -344 c136 -189 274 -382 308 -429 34 -47 66 -91 70 -97 6 -10 -293
-13 -1478 -13 l-1485 0 0 933 0 932 615 0 c339 0 618 4 621 8 3 5 5 295 5 644
l0 635 297 -5 c225 -4 313 -9 366 -21z"/>
</g>
</svg>
